Coordinates
version=1
nRows=9
nColumns=63
inDegrees=yes

Units are S.I. units (second, meters, Newtons, ...)
If the header above contains a line with 'inDegrees', this indicates whether rotational values are in degrees (yes) or radians (no).

endheader
time	pelvis_tilt	pelvis_list	pelvis_rotation	pelvis_tx	pelvis_ty	pelvis_tz	hip_flexion_r	hip_adduction_r	hip_rotation_r	knee_angle_r	knee_angle_r_beta	ankle_angle_r	subtalar_angle_r	mtp_angle_r	hip_flexion_l	hip_adduction_l	hip_rotation_l	knee_angle_l	knee_angle_l_beta	ankle_angle_l	subtalar_angle_l	mtp_angle_l	L5_S1_Flex_Ext	L5_S1_Lat_Bending	L5_S1_axial_rotation	L4_L5_Flex_Ext	L4_L5_Lat_Bending	L4_L5_axial_rotation	L3_L4_Flex_Ext	L3_L4_Lat_Bending	L3_L4_axial_rotation	L2_L3_Flex_Ext	L2_L3_Lat_Bending	L2_L3_axial_rotation	L1_L2_Flex_Ext	L1_L2_Lat_Bending	L1_L2_axial_rotation	L1_T12_Flex_Ext	L1_T12_Lat_Bending	L1_T12_axial_rotation	Abs_r3	Abs_r2	Abs_r1	Abs_t1	Abs_t2	neck_flexion	neck_bending	neck_rotation	arm_flex_r	arm_add_r	arm_rot_r	elbow_flex_r	pro_sup_r	wrist_flex_r	wrist_dev_r	arm_flex_l	arm_add_l	arm_rot_l	elbow_flex_l	pro_sup_l	wrist_flex_l	wrist_dev_l
      6.96610169	      0.03879725	     -8.95275271	    104.09706369	      0.22203886	      0.86000100	      0.68238055	      6.18642993	     -3.20070535	    -31.14954402	     13.75167252	      0.24001196	     28.51543952	     16.50163232	      0.00000000	     13.66261562	      0.97735358	     11.35101051	     19.78133191	      0.34524937	     29.66407784	     -8.52445451	      0.00000000	     -0.55079199	     -1.39232718	      5.39653156	     -1.02287580	     -1.85179515	      5.73381478	     -0.90489616	     -3.38530430	      5.73381478	     -0.62950017	     -3.38530430	      4.72196512	     -0.51146544	     -2.83923358	      4.38468189	     -0.31472254	     -2.15671480	      4.04739867	     -3.93425211	    -15.75028351	     30.01388958	      0.00000000	      0.00000000	    -11.87311687	     13.42248859	    -16.50973935	     84.48871409	     -1.52644162	     41.49411639	     76.36071802	     89.32888045	    -18.42593275	      1.95229316	     10.50192704	    -10.56207632	     49.77104588	     40.58050947	     87.17321624	     -9.05647164	      1.20738882
      6.98305085	      0.20100103	     -9.16713108	    105.04253412	      0.21985100	      0.85972189	      0.68249248	      6.30312512	     -3.32850379	    -32.28974774	     13.89883247	      0.24258039	     28.21228431	     16.49005057	      0.00000000	     13.97106992	      1.15271858	     12.14374017	     19.80771107	      0.34570978	     29.76794478	     -8.53590183	      0.00000000	     -0.51821316	     -1.37220065	      5.36257383	     -0.96237366	     -1.82502686	      5.69773470	     -0.85137240	     -3.33636866	      5.69773470	     -0.59226582	     -3.33636866	      4.69225211	     -0.48121274	     -2.79819156	      4.35709124	     -0.29610700	     -2.12553880	      4.02193038	     -3.70154479	    -15.52260817	     29.82502690	      0.00000000	      0.00000000	    -10.53687593	     12.66498675	    -18.09913332	     83.31902898	      0.48487919	     37.36708960	     76.01893816	     89.30332076	    -15.85546374	      2.40068352	     11.64424244	     -9.94607126	     52.37276056	     39.02497356	     87.02522719	    -10.05106187	      0.45630738
      7.00000000	      0.22886577	     -9.33664185	    105.66447594	      0.21769515	      0.85966637	      0.68229739	      6.34806133	     -3.54371787	    -33.00032201	     13.97236361	      0.24386375	     27.84063125	     16.46749814	      0.00000000	     14.05429574	      1.38437407	     12.68266995	     19.62742816	      0.34256325	     29.78546191	     -8.49352780	      0.00000000	     -0.47828588	     -1.36909378	      5.33158739	     -0.88822470	     -1.82089473	      5.66481160	     -0.78577586	     -3.32881461	      5.66481160	     -0.54663293	     -3.32881461	      4.66513896	     -0.44413626	     -2.79185603	      4.33191475	     -0.27329255	     -2.12072626	      3.99869054	     -3.41634818	    -15.48746265	     29.65268956	      0.00000000	      0.00000000	     -9.43183795	     12.01110732	    -19.43196031	     81.68892771	      2.27536050	     33.46807046	     76.91078921	     89.17141486	    -13.07317949	      4.85386402	     12.52410253	     -9.44154382	     54.45459053	     37.58709591	     87.22691500	    -10.92694410	     -0.15047838
      7.01694915	      0.15462645	     -9.38096546	    105.98005291	      0.21556133	      0.85998468	      0.68186683	      6.22763876	     -3.76528595	    -33.26965142	     13.89132757	      0.24244940	     27.40596632	     16.45763499	      0.00000000	     13.88138678	      1.60622606	     12.87515997	     19.28808681	      0.33664062	     29.70375921	     -8.27325661	      0.00000000	     -0.44341757	     -1.37170811	      5.32532463	     -0.82347077	     -1.82437179	      5.65815742	     -0.72849072	     -3.33517111	      5.65815742	     -0.50678194	     -3.33517111	      4.65965905	     -0.41175755	     -2.79718719	      4.32682626	     -0.25336880	     -2.12477587	      3.99399347	     -3.16728735	    -15.51703654	     29.61785798	      0.00000000	      0.00000000	     -8.60113146	     11.57230909	    -20.38417044	     79.65565211	      3.71160535	     30.10335489	     78.70086717	     88.73876415	    -10.68110357	      8.12577079	     13.30022085	     -8.96212405	     56.36569385	     36.10956903	     87.60670919	    -11.69525457	     -0.85146410
      7.03389831	      0.05316564	     -9.13941772	    105.96770239	      0.21351016	      0.86073375	      0.68110019	      5.86782825	     -3.91311484	    -33.17718488	     13.84113249	      0.24157333	     27.01977340	     16.50813168	      0.00000000	     13.36888064	      1.71425990	     12.81704951	     18.93898056	      0.33054757	     29.63031559	     -8.11507755	      0.00000000	     -0.42619482	     -1.35260107	      5.32835793	     -0.79148641	     -1.79895942	      5.66138030	     -0.70019548	     -3.28871424	      5.66138030	     -0.48709807	     -3.28871424	      4.66231319	     -0.39576451	     -2.75822410	      4.32929082	     -0.24352772	     -2.09517905	      3.99626845	     -3.04426701	    -15.30089380	     29.63472829	      0.00000000	      0.00000000	     -8.28408380	     11.17192870	    -20.23495993	     77.45334193	      4.84715732	     28.11493254	     80.45462149	     87.00512235	    -10.38181977	      9.56050222	     13.70341152	     -8.39334661	     57.12133098	     34.80132199	     87.96154145	    -11.96625678	     -0.90928656
      7.05084746	     -0.08279655	     -8.83796229	    105.58416320	      0.21165649	      0.86162144	      0.68024631	      5.46026777	     -4.01382995	    -32.54202947	     13.66206527	      0.23844802	     26.56215333	     16.56622167	      0.00000000	     12.76394521	      1.73754396	     12.13165108	     18.57151295	      0.32413405	     29.47414744	     -7.75390615	      0.00000000	     -0.41664384	     -1.33104242	      5.47346162	     -0.77374927	     -1.77028642	      5.81555297	     -0.68450416	     -3.23629654	      5.81555297	     -0.47618224	     -3.23629654	      4.78927892	     -0.38689547	     -2.71426170	      4.44718757	     -0.23807029	     -2.06178471	      4.10509622	     -2.97604528	    -15.05701805	     30.44175149	      0.00000000	      0.00000000	     -8.13851441	     10.77753067	    -20.56366548	     75.18350140	      4.43292219	     26.97938065	     83.87312968	     78.85273228	     -8.54602133	     14.63850403	     14.87513851	     -7.78656798	     60.69056641	     33.15072052	     87.83904811	    -13.29484794	     -1.94379108
      7.06779661	     -0.17037998	     -8.34797224	    105.12327014	      0.20987931	      0.86276944	      0.67909206	      4.81069333	     -3.94100770	    -31.68080996	     13.28102198	      0.23179756	     26.05715715	     16.56620328	      0.00000000	     11.92139947	      1.61257278	     11.23522410	     18.13928458	      0.31659024	     29.25287600	     -7.27581820	      0.00000000	     -0.41746179	     -1.28118062	      5.55834120	     -0.77526829	     -1.70397022	      5.90573752	     -0.68584798	     -3.11506255	      5.90573752	     -0.47711708	     -3.11506255	      4.86354855	     -0.38765502	     -2.61258351	      4.51615222	     -0.23853767	     -1.98454877	      4.16875590	     -2.98188782	    -14.49297136	     30.91382624	      0.00000000	      0.00000000	     -8.41771642	     10.03467328	    -20.19414298	     73.13840592	      3.45927290	     27.90816630	     86.70991354	     68.78143070	     -9.70410445	     15.52552124	     15.59786414	     -7.27021607	     62.84190638	     32.06969784	     87.94032954	    -13.83054343	     -1.99492046
      7.08474576	     -0.30859906	     -7.87602101	    104.57994917	      0.20812945	      0.86386230	      0.67763045	      4.17616555	     -3.94457295	    -30.82966535	     12.97075207	      0.22638233	     25.63530235	     16.62984090	      0.00000000	     11.03064854	      1.56809832	     10.43104156	     17.67881204	      0.30855348	     28.80506279	     -7.34188719	      0.00000000	     -0.41611933	     -1.22791707	      5.61906091	     -0.77277521	     -1.63312970	      5.97025221	     -0.68364245	     -2.98555757	      5.97025221	     -0.47558278	     -2.98555757	      4.91667829	     -0.38640841	     -2.50396849	      4.56548699	     -0.23777059	     -1.90204354	      4.21429568	     -2.97229877	    -13.89044349	     31.25153104	      0.00000000	      0.00000000	     -8.85387879	      8.80311266	    -19.55987338	     70.72086955	      2.59755616	     27.69232684	     89.72048151	     71.08049890	     -7.17149709	     18.39540392	     15.92351364	     -7.01050600	     63.38243530	     31.99673363	     88.21780505	    -13.05508283	     -0.84879296
      7.10169492	     -0.51468949	     -7.44313062	    103.98516981	      0.20657470	      0.86482476	      0.67568576	      3.51138202	     -3.98175602	    -29.69410646	     12.56716936	      0.21933848	     25.33638604	     16.53294744	      0.00000000	     10.12366535	      1.57820124	      9.54990412	     17.21663316	      0.30048693	     28.25205356	     -7.43268092	      0.00000000	     -0.41165515	     -1.17875948	      5.63662318	     -0.76448477	     -1.56775010	      5.98891212	     -0.67630824	     -2.86603579	      5.98891212	     -0.47048067	     -2.86603579	      4.93204528	     -0.38226297	     -2.40372633	      4.57975633	     -0.23521975	     -1.82589843	      4.22746738	     -2.94041155	    -13.33436296	     31.34920712	      0.00000000	      0.00000000	     -9.41728264	      7.42973213	    -18.43819229	     68.09071583	      1.91628379	     26.55531478	     92.72953271	     83.04464575	     -0.36043275	     21.13426159	     15.50919705	     -7.28420210	     61.20184096	     33.68294424	     88.51973345	    -11.07017960	      1.32998225
